<svg xmlns="http://www.w3.org/2000/svg" width="400" height="300" viewBox="0 0 400 300"><rect width="100%" height="100%" fill="#DDDDDD"/><path fill="#999999" d="M93.825 133.46v17.7q0 2.32-.57 4.18-.57 1.87-1.7 3.18t-2.82 2.01-3.93.7q-1.03 0-2.02-.12-.98-.12-2.07-.39.06-.76.14-1.52.07-.76.13-1.52.06-.42.33-.67.28-.26.79-.26.32 0 .85.13.52.14 1.32.14 1.08 0 1.92-.32.83-.31 1.39-.99.56-.69.85-1.78.28-1.09.28-2.65v-17.82zm15.41 22.43v-3.28q-2.03.09-3.42.35-1.38.26-2.22.66-.84.39-1.2.93-.36.53-.36 1.16 0 1.23.73 1.76t1.91.53q1.45 0 2.5-.52t2.06-1.59m-9.92-10.24-.83-1.5q3.36-3.08 8.09-3.08 1.71 0 3.06.57 1.35.56 2.28 1.55.93 1 1.42 2.39.48 1.39.48 3.04v12.31h-2.13q-.66 0-1.02-.2t-.57-.81l-.42-1.4q-.74.66-1.45 1.17-.7.5-1.46.84t-1.62.52q-.87.18-1.91.18-1.24 0-2.28-.33-1.05-.33-1.81-1-.76-.66-1.17-1.65-.42-.99-.42-2.3 0-.74.24-1.47.25-.73.81-1.4.56-.66 1.46-1.25.89-.59 2.19-1.03 1.3-.43 3.03-.71t3.95-.33v-1.14q0-1.96-.83-2.9-.84-.94-2.42-.94-1.14 0-1.89.27-.75.26-1.32.59-.57.34-1.03.6-.47.27-1.04.27-.49 0-.83-.26-.35-.25-.56-.6m23.6 1.49v8.74q.8.97 1.74 1.36.94.4 2.04.4 1.07 0 1.92-.4.86-.39 1.46-1.21.59-.82.92-2.06.32-1.25.32-2.94 0-1.71-.28-2.9-.27-1.18-.78-1.92-.52-.75-1.25-1.09t-1.66-.34q-1.46 0-2.49.62t-1.94 1.74m-.62-4.85.37 1.81q1.2-1.35 2.72-2.19t3.57-.84q1.6 0 2.92.67t2.28 1.93 1.48 3.11q.53 1.86.53 4.25 0 2.19-.59 4.05t-1.69 3.23q-1.09 1.37-2.64 2.14-1.55.76-3.46.76-1.64 0-2.8-.5t-2.07-1.39v7.98h-4.69v-25.86h2.87q.91 0 1.2.85m27.81 13.6v-3.28q-2.03.09-3.42.35t-2.22.66q-.84.39-1.2.93-.36.53-.36 1.16 0 1.23.73 1.76t1.91.53q1.45 0 2.5-.52t2.06-1.59m-9.92-10.24-.83-1.5q3.36-3.08 8.09-3.08 1.71 0 3.06.57 1.35.56 2.28 1.55.93 1 1.42 2.39.48 1.39.48 3.04v12.31h-2.13q-.66 0-1.02-.2t-.57-.81l-.42-1.4q-.74.66-1.45 1.17-.7.5-1.46.84t-1.62.52q-.87.18-1.91.18-1.24 0-2.28-.33-1.05-.33-1.81-1-.76-.66-1.18-1.65-.41-.99-.41-2.3 0-.74.24-1.47.25-.73.81-1.4.56-.66 1.45-1.25.9-.59 2.2-1.03 1.3-.43 3.03-.71t3.95-.33v-1.14q0-1.96-.83-2.9-.84-.94-2.42-.94-1.14 0-1.89.27-.75.26-1.32.59-.57.34-1.03.6-.47.27-1.04.27-.49 0-.84-.26-.34-.25-.55-.6m22.97-3.36.33 1.54q.59-.59 1.24-1.09.66-.51 1.39-.86t1.57-.55q.83-.2 1.82-.2 1.6 0 2.83.54 1.24.55 2.06 1.52.83.98 1.26 2.34.42 1.36.42 2.99v12.41h-4.69v-12.41q0-1.78-.82-2.76-.81-.98-2.48-.98-1.22 0-2.28.55-1.07.55-2.02 1.5v14.1h-4.69v-19.49h2.87q.91 0 1.19.85m21.07 6.65h8.86q0-.91-.26-1.72-.25-.81-.77-1.41-.51-.61-1.3-.96t-1.83-.35q-2.03 0-3.2 1.15-1.17 1.16-1.5 3.29m11.97 2.83h-12.06q.11 1.5.53 2.6.42 1.09 1.1 1.8.69.71 1.63 1.06.94.36 2.08.36t1.97-.27q.82-.27 1.44-.59t1.08-.59q.47-.26.91-.26.58 0 .87.43l1.35 1.71q-.78.92-1.75 1.53-.97.62-2.02.99-1.06.37-2.15.52t-2.12.15q-2.03 0-3.78-.67t-3.04-1.99q-1.29-1.33-2.03-3.27-.74-1.95-.74-4.51 0-2 .64-3.76.65-1.75 1.85-3.06 1.21-1.3 2.95-2.06t3.92-.76q1.85 0 3.4.59 1.56.59 2.68 1.72t1.76 2.77q.64 1.65.64 3.76 0 1.06-.23 1.43t-.88.37m17.58-8.22-1.06 1.69q-.19.3-.4.42-.21.13-.54.13-.34 0-.73-.19t-.9-.43-1.17-.43q-.65-.19-1.55-.19-1.38 0-2.17.59t-.79 1.54q0 .63.41 1.05.41.43 1.08.75.68.33 1.53.58.86.26 1.74.57.88.3 1.74.69.85.39 1.53.99.67.59 1.08 1.43t.41 2.02q0 1.4-.5 2.59-.51 1.19-1.5 2.05-.98.86-2.44 1.35-1.45.48-3.35.48-1.01 0-1.97-.18t-1.84-.5-1.63-.76q-.76-.44-1.33-.95l1.09-1.79q.21-.32.49-.49.29-.17.72-.17.44 0 .83.25.39.24.9.53.52.28 1.21.53t1.76.25q.83 0 1.43-.2t.99-.53q.39-.32.57-.75.18-.42.18-.88 0-.68-.41-1.12t-1.08-.76q-.68-.32-1.54-.58-.87-.26-1.77-.56t-1.76-.71q-.87-.41-1.54-1.04-.68-.62-1.09-1.54-.41-.91-.41-2.2 0-1.2.48-2.28.47-1.08 1.4-1.89.92-.81 2.3-1.29 1.37-.49 3.18-.49 2.01 0 3.66.67 1.66.66 2.76 1.75m7.45 5.39h8.85q0-.91-.25-1.72-.26-.81-.77-1.41-.52-.61-1.31-.96-.78-.35-1.83-.35-2.03 0-3.2 1.15-1.17 1.16-1.49 3.29m11.97 2.83h-12.07q.12 1.5.53 2.6.42 1.09 1.11 1.8.68.71 1.62 1.06.94.36 2.08.36t1.97-.27 1.44-.59q.62-.32 1.09-.59.46-.26.9-.26.59 0 .87.43l1.35 1.71q-.78.92-1.75 1.53-.97.62-2.02.99t-2.15.52q-1.09.15-2.12.15-2.03 0-3.78-.67t-3.04-1.99q-1.29-1.33-2.03-3.27-.74-1.95-.74-4.51 0-2 .64-3.76.65-1.75 1.86-3.06 1.2-1.3 2.94-2.06t3.93-.76q1.84 0 3.4.59 1.55.59 2.68 1.72 1.12 1.13 1.75 2.77.64 1.65.64 3.76 0 1.06-.23 1.43t-.87.37m38.99-4.58q0 3.02-1.01 5.55t-2.83 4.35q-1.83 1.83-4.39 2.83-2.57 1.01-5.7 1.01h-10.47v-27.47h10.47q3.13 0 5.7 1.01 2.56 1.02 4.39 2.83 1.82 1.82 2.83 4.34 1.01 2.53 1.01 5.55m-5.25 0q0-2.26-.6-4.05-.59-1.8-1.73-3.04-1.13-1.25-2.73-1.91-1.61-.67-3.62-.67h-5.34v19.34h5.34q2.01 0 3.62-.66 1.6-.67 2.73-1.91 1.14-1.24 1.73-3.04.6-1.8.6-4.06m9.16-5.75h4.71v19.49h-4.71zm5.36-5.69q0 .61-.25 1.14-.25.54-.65.94-.41.4-.96.63-.55.24-1.18.24-.61 0-1.15-.24-.54-.23-.94-.63t-.64-.94q-.24-.53-.24-1.14 0-.62.24-1.17t.64-.95.94-.64 1.15-.24q.63 0 1.18.24t.96.64q.4.4.65.95t.25 1.17m17.1 7.8-1.07 1.69q-.19.3-.39.42-.21.13-.54.13-.34 0-.73-.19t-.9-.43-1.17-.43q-.65-.19-1.55-.19-1.38 0-2.17.59t-.79 1.54q0 .63.41 1.05.41.43 1.08.75.67.33 1.53.58.85.26 1.74.57.88.3 1.74.69.85.39 1.53.99.67.59 1.08 1.43t.41 2.02q0 1.4-.51 2.59-.5 1.19-1.49 2.05t-2.44 1.35q-1.45.48-3.35.48-1.01 0-1.97-.18t-1.84-.5q-.89-.32-1.64-.76t-1.32-.95l1.09-1.79q.21-.32.49-.49.29-.17.72-.17.44 0 .83.25.39.24.9.53.51.28 1.21.53.69.25 1.76.25.83 0 1.43-.2t.99-.53q.39-.32.57-.75.18-.42.18-.88 0-.68-.41-1.12t-1.08-.76q-.68-.32-1.54-.58-.87-.26-1.77-.56t-1.77-.71q-.86-.41-1.54-1.04-.67-.62-1.08-1.54-.41-.91-.41-2.2 0-1.2.48-2.28.47-1.08 1.39-1.89.93-.81 2.3-1.29 1.38-.49 3.19-.49 2.01 0 3.66.67 1.66.66 2.76 1.75m8.43-10.85v10.83q1.14-1.07 2.51-1.73 1.37-.67 3.21-.67 1.6 0 2.83.54 1.24.55 2.07 1.52.82.98 1.25 2.34t.43 2.99v12.41h-4.7v-12.41q0-1.78-.81-2.76-.82-.98-2.49-.98-1.22 0-2.28.55-1.07.55-2.02 1.5v14.1h-4.69V132.7z"/></svg>